<?xml version="1.0" encoding="utf-8"?>
<!-- Generator: Adobe Illustrator 22.0.0, SVG Export Plug-In . SVG Version: 6.00 Build 0)  -->
<svg version="1.1" id="Layer_1" xmlns="http://www.w3.org/2000/svg" xmlns:xlink="http://www.w3.org/1999/xlink" x="0px" y="0px"
	 viewBox="0 0 1165.4 194.3" style="enable-background:new 0 0 1165.4 194.3;" xml:space="preserve">
<style type="text/css">
	.st0{fill:#FF000D;}
</style>
<title>logo_horizontal</title>
<path d="M30.9,189.4H3.6v-5.6h27.3c3.5,0,6-1,7.8-2.8s2.6-4.4,2.6-7.6s-0.9-5.7-2.6-7.7c-1.8-2-4.4-2.8-7.8-2.8H3.6v-5.5h27.3
	c5,0,8.7,1.4,11.3,4.5c2.6,3.1,4,6.9,4,11.5c0,4.6-1.3,8.5-4,11.4C39.6,188,35.8,189.4,30.9,189.4z"/>
<path d="M46,131.3c0.1,5.6-2.1,11-6.1,14.9c-4.1,4.1-9.2,6.2-15.4,6.2s-11.3-2.1-15.3-6.2c-4-4-6.2-9.6-6.1-15.3
	c-0.2-4,0.9-8,3.1-11.6c2.1-3.4,5.3-6.1,8.9-7.6v6.7c-4.7,2.5-7.2,6.7-7.2,12.5c-0.2,4.3,1.4,8.4,4.5,11.3c3.1,3,6.9,4.4,12,4.4
	c4.9,0,9-1.4,12-4.4c3-2.9,4.6-6.9,4.5-11.1c0-4.4-1.2-8-3.7-10.7c-2.5-2.8-5.9-4.3-10.2-4.7v17.4h-4.4V110h4.4
	c5.2,0.4,10,2.9,13.5,6.7C44.3,120.8,46.3,125.9,46,131.3z"/>
<path d="M45.7,74.1l-9.2,3.3V96l9.2,3.3v5.6L3.6,89.7v-6l42.1-15.2V74.1z M32.1,94.5V78.8l-21.7,7.7L32.1,94.5z"/>
<circle cx="180.5" cy="85" r="15"/>
<circle cx="268.9" cy="85" r="15"/>
<ellipse cx="180.8" cy="173.1" rx="15" ry="15"/>
<ellipse cx="268.9" cy="173.1" rx="15" ry="15"/>
<path d="M174.5,119.8h100.2c5,0,9.1,4.1,9.1,9.1v2.2c0,5-4.1,9.1-9.1,9.1H174.5c-5,0-9.1-4.1-9.1-9.1V129
	C165.4,123.9,169.5,119.8,174.5,119.8z"/>
<path d="M466.2,187.7l-7.4-21.5h-44.7l-7.4,21.5h-24.5l40.6-115h27.4l40.4,115H466.2z M420.2,148.5h32.7l-16.4-47.8L420.2,148.5z"/>
<path d="M599.4,172.1c-11.3-11.1-16.9-25.1-16.9-42s5.7-31,17-42.1s25.2-16.6,41.6-16.6c12.5,0,23.6,3.2,33.3,9.5
	c9.7,6.4,17,15.8,20.8,26.8h-27.8c-5.1-10.1-13.9-15.1-26.3-15.1c-10.4,0-18.9,3.4-25.4,10.3s-9.8,15.9-9.8,27.3
	c0,11.3,3.3,20.4,9.8,27.3s15,10.3,25.4,10.3c12.3,0,21-5,26.3-15.1h27.8c-4.2,11.5-11.1,20.4-20.8,26.7s-20.8,9.4-33.3,9.5
	C624.6,188.7,610.7,183.2,599.4,172.1z"/>
<path d="M820.5,187.7h-23.2V73.1h23.2v51.3l41.4-51.3h30.2l-49.8,57.5l49.8,57.2h-30l-41.6-50.9L820.5,187.7L820.5,187.7z"/>
<path d="M1027.3,90c-4.6,0-8.4,1.2-11.3,3.5c-2.9,2.4-4.5,6-4.3,9.8c0,4.2,1.1,7.4,3.2,9.8c2.3,2.5,5.2,4.3,8.5,5.4
	c3.8,1.3,7.6,2.5,11.5,3.4c4.2,1,8.3,2.2,12.5,3.6c4,1.4,7.9,3.1,11.5,5.3s6.5,5.4,8.5,9.1c2.3,4.5,3.4,9.5,3.2,14.5
	c0,9.4-3.8,17.5-11.3,24.3s-17.5,10.2-29.9,10.2s-22.5-2.9-30.1-8.8c-7.7-5.9-11.5-14.1-11.5-24.7h24.6c0.9,10.1,6.6,15.1,17.3,15.1
	c5.3,0,9.4-1.4,12.5-4.1c3.1-2.8,4.8-6.8,4.6-10.9c0-4.5-2-8.1-6.1-10.8c-4.5-2.8-9.5-4.8-14.7-5.9c-5.7-1.3-11.5-2.9-17.3-4.8
	c-5.7-1.8-10.9-5.2-14.8-9.8c-4.1-4.7-6.1-10.8-6.1-18.5c0-10.4,3.8-18.7,11.3-25c7.6-6.3,17.3-9.4,29.2-9.4s21.4,2.7,28.7,8.1
	c7.2,5.4,11.2,13.7,11.8,24.7h-25.3c-0.2-4-2-7.7-4.9-10.4C1035.6,91.3,1031.9,90,1027.3,90z"/>
<g>
	<path class="st0" d="M1128.8,4.8c3.9-3.2,9-4.8,15.3-4.8s11.2,1.6,14.8,4.8c3.5,3,5.5,7.5,5.4,12.1c0.1,3.4-0.9,6.7-2.9,9.5
		c-1.6,2.3-3.9,4.1-6.5,5.1v0.4c7,2.4,10.6,7.7,10.6,15.9c0.2,5-1.9,9.9-5.6,13.2c-3.8,3.3-8.9,5-15.5,5s-11.9-1.7-16.1-5
		c-4.2-3.3-6.3-8.2-6.5-14.7h12c0,2.6,1.1,5.1,2.9,6.9c2,1.8,4.7,2.7,7.4,2.6c3.1,0,5.5-0.8,7.1-2.5s2.4-4.1,2.4-7.2
		c0-3.1-1.1-5.4-3.3-6.9s-5.7-2.3-10.5-2.3h-2.6V26.7h2.6c8.3,0,12.5-2.8,12.5-8.4c0.1-2.1-0.7-4.2-2.3-5.7
		c-1.8-1.5-4.2-2.3-6.5-2.1c-2.8,0-4.9,0.8-6.3,2.4c-1.3,1.5-2.2,3.3-2.5,5.3h-12.1C1122.8,12.5,1124.9,8,1128.8,4.8z"/>
</g>
</svg>
