<svg xmlns="http://www.w3.org/2000/svg" viewBox="0 0 51.55 75.6"><defs><style>.cls-1{fill:none;stroke:#ff000d;stroke-miterlimit:10;stroke-width:2px;}</style></defs><title>Asset 1</title><g id="Layer_2" data-name="Layer 2"><g id="Layer_1-2" data-name="Layer 1"><g id="X3StnF"><path class="cls-1" d="M32.5,52.9H19c-.5-7.3,1-13.8,6.8-18.7,1.8-1.6,3.8-3,5.6-4.6a10.59,10.59,0,0,0,2.7-12.4c-1.4-3.1-4.9-4.8-8.9-4.3-4.6.6-7.7,3.7-8.7,8.8-.2,1-.2,2.1-.4,3.2-.1.4-.6,1-1,1-4.2.1-8.5,0-12.7,0a7.77,7.77,0,0,1-1.3-.1c.2-1.8.3-3.6.6-5.3C4,8.6,13.2,1.1,25.3,1c5.4,0,10.6.8,15.4,3.4a19,19,0,0,1,9.8,18.2,19.24,19.24,0,0,1-8.6,15,49,49,0,0,0-5.7,4.5,11.05,11.05,0,0,0-4,9A3.43,3.43,0,0,1,32.5,52.9Z"/><path class="cls-1" d="M25.3,74.6a7.83,7.83,0,0,1-7.8-7.9,7.9,7.9,0,1,1,15.8.2A7.84,7.84,0,0,1,25.3,74.6Z"/></g></g></g></svg>