<svg id="Layer_1" data-name="Layer 1" xmlns="http://www.w3.org/2000/svg" viewBox="0 0 487.16 110.91"><defs><style>.cls-1{fill:#ff000d;}.cls-2{fill:none;stroke:#ff000d;stroke-miterlimit:10;stroke-width:2.96px;}.cls-3{fill:red;}</style></defs><title>whatisahack_icons</title><path class="cls-1" d="M319.4,37.3V33.6h31.4v3.7Zm0,12.7V46.3h31.4V50Z" transform="translate(-0.52 -0.02)"/><circle class="cls-2" cx="263.58" cy="11.68" r="10.1"/><circle class="cls-2" cx="203.98" cy="11.68" r="10.1"/><circle class="cls-2" cx="263.58" cy="71.08" r="10.1"/><circle class="cls-2" cx="203.98" cy="71.08" r="10.1"/><circle class="cls-2" cx="415.78" cy="11.58" r="10.1"/><circle class="cls-2" cx="415.78" cy="71.08" r="10.1"/><circle class="cls-2" cx="475.48" cy="11.58" r="10.1"/><circle class="cls-2" cx="475.48" cy="71.08" r="10.1"/><path class="cls-2" d="M412.4,48.7a6.17,6.17,0,0,1-6.2-6.2V41a6.23,6.23,0,0,1,6.2-6.2H480a6.23,6.23,0,0,1,6.2,6.2v1.5a6.23,6.23,0,0,1-6.2,6.2Z" transform="translate(-0.52 -0.02)"/><path class="cls-2" d="M2,42.5V41a6.23,6.23,0,0,1,6.2-6.2H75.8A6.23,6.23,0,0,1,82,41v1.5a6.23,6.23,0,0,1-6.2,6.2H8.2A6.17,6.17,0,0,1,2,42.5Z" transform="translate(-0.52 -0.02)"/><path class="cls-1" d="M125.2,40.2h11.6V28.5h3.4V40.2h11.6v3.1H140.2V55.1h-3.4V43.4H125.2V40.2Z" transform="translate(-0.52 -0.02)"/><path class="cls-3" d="M20.94,93.82V96H16.21v14.74H13.45V96H8.75v-2.2Z" transform="translate(-0.52 -0.02)"/><path class="cls-3" d="M33.08,107.09H25.93l-1.29,3.67H21.71L28,94.08h3.14l6.22,16.68H34.38ZM32.32,105l-2.81-7.92L26.7,105Z" transform="translate(-0.52 -0.02)"/><path class="cls-3" d="M50.66,103.49a4.06,4.06,0,0,1,1,2.69,4.21,4.21,0,0,1-1.41,3.34,6.06,6.06,0,0,1-4.11,1.24H39.35V93.82H46A5.89,5.89,0,0,1,49.87,95a4.35,4.35,0,0,1,.52,5.73A4,4,0,0,1,48.18,102,4.2,4.2,0,0,1,50.66,103.49Zm-8.58-2.38h3.39a3.17,3.17,0,0,0,2.19-.67,2.36,2.36,0,0,0,.76-1.87,2.33,2.33,0,0,0-.76-1.85,3.33,3.33,0,0,0-2.29-.67H42.08ZM48,107.8a2.74,2.74,0,0,0,0-4,3.68,3.68,0,0,0-2.42-.72H42.08v5.4h3.46A3.68,3.68,0,0,0,48,107.8Z" transform="translate(-0.52 -0.02)"/><path class="cls-3" d="M56.92,108.62h5.85v2.14H54.18V93.82h2.74Z" transform="translate(-0.52 -0.02)"/><path class="cls-3" d="M67.64,96v5.14h6.24v2.11H67.64v5.26h7v2.23H64.91V93.82H74.6V96Z" transform="translate(-0.52 -0.02)"/><path class="cls-3" d="M215.59,93.82V96h-4.73v14.74H208.1V96h-4.7v-2.2Z" transform="translate(-0.52 -0.02)"/><path class="cls-3" d="M220.37,96v5.14h6.24v2.11h-6.24v5.26h7v2.23h-9.7V93.82h9.7V96Z" transform="translate(-0.52 -0.02)"/><path class="cls-3" d="M240.1,107.09h-7.16l-1.29,3.67h-2.93L235,94.08h3.14l6.22,16.68h-2.93Zm-.77-2.11-2.81-7.92L233.71,105Z" transform="translate(-0.52 -0.02)"/><path class="cls-3" d="M263.93,94.08v16.68h-2.76V98.26l-4.83,12.5h-2.4l-4.84-12.5v12.5h-2.74V94.08h3.31l5.52,13.32,5.43-13.32Z" transform="translate(-0.52 -0.02)"/><path class="cls-3" d="M421.28,93.82v16.94h-2.76v-7.61h-8v7.61h-2.74V93.82h2.74v7.1h8v-7.1Z" transform="translate(-0.52 -0.02)"/><path class="cls-3" d="M434.69,107.09h-7.15l-1.3,3.67h-2.92l6.24-16.68h3.14l6.22,16.68H436Zm-.77-2.11-2.8-7.92L428.31,105Z" transform="translate(-0.52 -0.02)"/><path class="cls-3" d="M453.7,95.23a7.73,7.73,0,0,1,2.78,4.3h-2.9a5.16,5.16,0,0,0-1.91-2.44,5.51,5.51,0,0,0-3.2-.9,4.94,4.94,0,0,0-2.7.75,5,5,0,0,0-1.87,2.12,7.83,7.83,0,0,0,0,6.43,5.13,5.13,0,0,0,1.87,2.13,5,5,0,0,0,2.7.74,5.51,5.51,0,0,0,3.2-.9,5.18,5.18,0,0,0,1.91-2.41h2.9a7.64,7.64,0,0,1-2.78,4.28,8.29,8.29,0,0,1-5.18,1.57,8.17,8.17,0,0,1-4.25-1.09,7.39,7.39,0,0,1-2.86-3,10.42,10.42,0,0,1,0-9,7.54,7.54,0,0,1,2.86-3.06,8.18,8.18,0,0,1,4.25-1.1A8.3,8.3,0,0,1,453.7,95.23Z" transform="translate(-0.52 -0.02)"/><path class="cls-3" d="M464.52,102.19l7.47,8.57h-3.34L462,102.91v7.85h-2.74V93.82H462v7.75l6.72-7.75H472Z" transform="translate(-0.52 -0.02)"/><path class="cls-3" d="M484.56,108.56a4.28,4.28,0,0,1-1.82,1.72,6.39,6.39,0,0,1-3,.65,7.69,7.69,0,0,1-3.1-.61,5.35,5.35,0,0,1-2.18-1.72,4.91,4.91,0,0,1-.94-2.54h2.93a3,3,0,0,0,.95,1.89,3.06,3.06,0,0,0,2.22.79,2.62,2.62,0,0,0,1.93-.67,2.3,2.3,0,0,0,.69-1.73,2.24,2.24,0,0,0-.51-1.5,3.42,3.42,0,0,0-1.25-.92c-.49-.22-1.17-.48-2-.77a17.18,17.18,0,0,1-2.58-1,4.62,4.62,0,0,1-1.69-1.46,4.22,4.22,0,0,1-.69-2.52,4.29,4.29,0,0,1,.67-2.4,4.36,4.36,0,0,1,1.92-1.6A7,7,0,0,1,479,93.6a6.28,6.28,0,0,1,4.11,1.25,4.67,4.67,0,0,1,1.74,3.26h-2.95a2.77,2.77,0,0,0-2.9-2.33,2.77,2.77,0,0,0-1.85.59,2.08,2.08,0,0,0-.7,1.69,2.11,2.11,0,0,0,.48,1.43,3.35,3.35,0,0,0,1.22.89c.48.22,1.15.47,2,.76a16.49,16.49,0,0,1,2.63,1,4.76,4.76,0,0,1,1.73,1.5,4.34,4.34,0,0,1,.7,2.59A4.63,4.63,0,0,1,484.56,108.56Z" transform="translate(-0.52 -0.02)"/></svg>