<svg id="Layer_1" data-name="Layer 1" xmlns="http://www.w3.org/2000/svg" viewBox="0 0 358.89 400.03"><defs><style>.cls-1{isolation:isolate;}.cls-2{fill:#ff000d;}.cls-3,.cls-5{fill:#ccc;}.cls-3{stroke:#fff;stroke-width:1.7px;}.cls-3,.cls-4,.cls-6,.cls-7{stroke-miterlimit:10;}.cls-4,.cls-6,.cls-7{fill:none;}.cls-4{stroke:#ff000d;stroke-width:3.01px;}.cls-6,.cls-7{stroke:#ccc;}.cls-6{stroke-width:3px;}.cls-7{stroke-width:3.04px;}</style></defs><title>whatdoyoumake_icons</title><g class="cls-1"><path class="cls-2" d="M20.22,169.35V188.8H17.05v-8.73H7.91v8.73H4.76V169.35H7.91v8.15h9.14v-8.15Z" transform="translate(-4.76 0)"/><path class="cls-2" d="M36.61,184.58H28.4l-1.49,4.22H23.55l7.17-19.15h3.61l7.13,19.15H38.1Zm-.88-2.42-3.22-9.09-3.23,9.09Z" transform="translate(-4.76 0)"/><path class="cls-2" d="M55,188.8,50.17,181H47.94v7.77H44.79V169.35h6.86A7.12,7.12,0,0,1,56.71,171a5.64,5.64,0,0,1,1.72,4.3A5.48,5.48,0,0,1,57.15,179a6.08,6.08,0,0,1-3.7,1.87l5.09,7.91Zm-7.08-10h3.47q3.8,0,3.8-3.36a3.34,3.34,0,0,0-.92-2.5,4.05,4.05,0,0,0-2.88-.89H47.94Z" transform="translate(-4.76 0)"/><path class="cls-2" d="M77.76,184.19a8.32,8.32,0,0,1-3.5,3.4,11.63,11.63,0,0,1-5.5,1.21h-6.5V169.35h6.5a11.75,11.75,0,0,1,5.5,1.2,8.26,8.26,0,0,1,3.5,3.37,10.46,10.46,0,0,1,1.2,5.13A10.58,10.58,0,0,1,77.76,184.19Zm-3.87-.05a7.88,7.88,0,0,0,0-10.19,7.42,7.42,0,0,0-5.38-1.82H65.4V186h3.11A7.38,7.38,0,0,0,73.89,184.14Z" transform="translate(-4.76 0)"/><path class="cls-2" d="M107.75,169.35,102.9,188.8H99l-4.11-15-4.1,15H87l-4.85-19.45h3.45l3.36,15.81,4.27-15.81h3.47l4.27,15.81,3.36-15.81Z" transform="translate(-4.76 0)"/><path class="cls-2" d="M123.15,184.58h-8.21l-1.49,4.22h-3.36l7.16-19.15h3.61L128,188.8h-3.36Zm-.89-2.42L119,173.07l-3.22,9.09Z" transform="translate(-4.76 0)"/><path class="cls-2" d="M141.55,188.8,136.7,181h-2.23v7.77h-3.14V169.35h6.86a7.09,7.09,0,0,1,5.05,1.62,5.64,5.64,0,0,1,1.72,4.3,5.44,5.44,0,0,1-1.28,3.75,6.08,6.08,0,0,1-3.7,1.87l5.1,7.91Zm-7.08-10h3.47q3.8,0,3.8-3.36a3.34,3.34,0,0,0-.92-2.5,4.05,4.05,0,0,0-2.88-.89h-3.47Z" transform="translate(-4.76 0)"/><path class="cls-2" d="M151.94,171.88v5.9h7.16v2.42h-7.16v6h8v2.56H148.79V169.35h11.13v2.53Z" transform="translate(-4.76 0)"/></g><g id="_1EQw0E" data-name=" 1EQw0E"><path class="cls-3" d="M83.32,37.1H122c6,0,10.8,3.1,12.7,8.7a7.89,7.89,0,0,0,3.5,4.5c3.7,2.6,5.2,6.4,5.3,10.8,0,17.2.1,34.3,0,51.5,0,7.9-5.8,13.5-13.8,13.5h-28.1c-5.6,0-9.8-2.2-12.6-7.2a1.85,1.85,0,0,0-1.2-.7c-3-.1-6-.1-9.1,0a2.09,2.09,0,0,0-1.3.7,13.24,13.24,0,0,1-12.3,7.1H36.62c-7.9,0-13.7-5.6-13.7-13.5-.1-17.1,0-34.3,0-51.4a13.08,13.08,0,0,1,7.2-12.2,2.15,2.15,0,0,0,.9-1.2c1.6-6.7,6.6-10.6,13.6-10.6Zm.1,15.7H37c-5.5,0-8.6,3.2-8.6,8.7v50.9c0,5.2,3.2,8.5,8.4,8.5,9.6.1,19.3,0,28.9,0a7.78,7.78,0,0,0,7.8-5.2c1.2-2.9,2.4-5.7,3.6-8.6s3.2-4.5,6.3-4.5,5.1,1.7,6.3,4.5,2.4,5.7,3.6,8.6a7.78,7.78,0,0,0,7.6,5.2c9.7,0,19.4.1,29.1,0,5,0,8.2-3.3,8.2-8.2V60.9a8.49,8.49,0,0,0-.9-3.8c-1.6-3.2-4.4-4.4-7.9-4.4C114.12,52.8,98.72,52.8,83.42,52.8ZM130,47.5c-.2-.5-.4-.9-.6-1.3-1.8-2.9-4.4-3.9-7.7-3.9H45a9,9,0,0,0-2.3.2c-2.8.4-5.4,2.6-5.8,5ZM86.42,113q-.9-2.25-1.8-4.2c-.6-1.2-1.9-1.3-2.5-.2-.7,1.4-1.2,2.8-1.9,4.4Z" transform="translate(-4.76 0)"/><path class="cls-3" d="M55.82,105.1A17,17,0,1,1,72.72,88v.1a16.86,16.86,0,0,1-16.7,17h-.2Zm0-28.7a11.75,11.75,0,1,0,11.7,11.8A11.82,11.82,0,0,0,55.82,76.4Z" transform="translate(-4.76 0)"/><path class="cls-3" d="M110.82,105.1a17,17,0,1,1,17-16.9,16.9,16.9,0,0,1-17,16.9Zm-.1-28.7a11.75,11.75,0,0,0,.1,23.5,11.75,11.75,0,1,0-.1-23.5Z" transform="translate(-4.76 0)"/></g><circle class="cls-4" cx="22.15" cy="118.01" r="10.1"/><circle class="cls-4" cx="25.95" cy="43.91" r="10.1"/><circle class="cls-4" cx="133.25" cy="120.6" r="10.1"/><circle class="cls-4" cx="131.95" cy="43.91" r="10.1"/><path class="cls-4" d="M116.72,95H49.62a6.06,6.06,0,0,1-6.1-6.1V87.4a6.06,6.06,0,0,1,6.1-6.1h67.1a6.06,6.06,0,0,1,6.1,6.1v1.5a6,6,0,0,1-5.9,6.1h-.2Z" transform="translate(-4.76 0)"/><g class="cls-1"><path class="cls-2" d="M271.73,395.58h-8.21L262,399.8h-3.36l7.16-19.15h3.61l7.14,19.15h-3.36Zm-.88-2.42-3.23-9.09-3.22,9.09Z" transform="translate(-4.76 0)"/><path class="cls-2" d="M283.05,392.25v7.55h-3.14V380.35h6.61a7.11,7.11,0,0,1,5.06,1.6,5.71,5.71,0,0,1,1.69,4.38,5.6,5.6,0,0,1-1.73,4.34,7.23,7.23,0,0,1-5,1.58Zm7-5.92a3.28,3.28,0,0,0-.93-2.52,4.21,4.21,0,0,0-3-.87h-3.14v6.75h3.14Q290.07,389.69,290.08,386.33Z" transform="translate(-4.76 0)"/><path class="cls-2" d="M300.16,392.25v7.55H297V380.35h6.61a7.11,7.11,0,0,1,5.06,1.6,5.71,5.71,0,0,1,1.69,4.38,5.6,5.6,0,0,1-1.73,4.34,7.23,7.23,0,0,1-5,1.58Zm7-5.92a3.28,3.28,0,0,0-.93-2.52,4.21,4.21,0,0,0-3-.87h-3.14v6.75h3.14Q307.18,389.69,307.19,386.33Z" transform="translate(-4.76 0)"/><path class="cls-2" d="M326.22,397.28a5.05,5.05,0,0,1-2.09,2,7.27,7.27,0,0,1-3.45.74,8.59,8.59,0,0,1-3.55-.7,6.18,6.18,0,0,1-2.51-2,5.6,5.6,0,0,1-1.07-2.92h3.36a3.42,3.42,0,0,0,1.09,2.18,3.55,3.55,0,0,0,2.55.91,3,3,0,0,0,2.21-.78,2.62,2.62,0,0,0,.79-2A2.52,2.52,0,0,0,323,393a4.11,4.11,0,0,0-1.43-1.06,24.93,24.93,0,0,0-2.34-.88,21.76,21.76,0,0,1-3-1.16,5.55,5.55,0,0,1-1.94-1.68,4.85,4.85,0,0,1-.8-2.89,4.8,4.8,0,0,1,3-4.59,8,8,0,0,1,3.31-.65,7.26,7.26,0,0,1,4.72,1.43,5.43,5.43,0,0,1,2,3.75h-3.39a3.35,3.35,0,0,0-1-1.89,3.27,3.27,0,0,0-2.3-.78,3.2,3.2,0,0,0-2.13.67,2.42,2.42,0,0,0-.8,2,2.45,2.45,0,0,0,.56,1.64,3.68,3.68,0,0,0,1.39,1c.56.25,1.32.54,2.3.87a21.15,21.15,0,0,1,3,1.17,5.55,5.55,0,0,1,2,1.72,5,5,0,0,1,.81,3A5.33,5.33,0,0,1,326.22,397.28Z" transform="translate(-4.76 0)"/></g><g class="cls-1"><path class="cls-2" d="M8.15,392.25v7.55H5V380.35h6.62a7.09,7.09,0,0,1,5,1.6,5.71,5.71,0,0,1,1.69,4.38,5.57,5.57,0,0,1-1.73,4.34,7.22,7.22,0,0,1-5,1.58Zm7-5.92a3.32,3.32,0,0,0-.92-2.52,4.25,4.25,0,0,0-3-.87H8.15v6.75h3.14Q15.18,389.69,15.18,386.33Z" transform="translate(-4.76 0)"/><path class="cls-2" d="M32.34,399.8,27.49,392H25.26v7.77H22.12V380.35H29A7.14,7.14,0,0,1,34,382a5.68,5.68,0,0,1,1.72,4.3A5.48,5.48,0,0,1,34.48,390a6.11,6.11,0,0,1-3.71,1.87l5.1,7.91Zm-7.08-10h3.47q3.81,0,3.81-3.36a3.31,3.31,0,0,0-.93-2.5,4,4,0,0,0-2.88-.89H25.26Z" transform="translate(-4.76 0)"/><path class="cls-2" d="M53.49,381.37a9,9,0,0,1,3.44,3.54,11.19,11.19,0,0,1,0,10.28,9.24,9.24,0,0,1-3.44,3.55,10,10,0,0,1-9.81,0,9.37,9.37,0,0,1-3.46-3.55,11,11,0,0,1,0-10.28,9.13,9.13,0,0,1,3.46-3.54,10.11,10.11,0,0,1,9.81,0Zm-8.23,2.51A5.8,5.8,0,0,0,43,386.33a8.95,8.95,0,0,0,0,7.44,5.85,5.85,0,0,0,2.27,2.45,6.51,6.51,0,0,0,3.34.85,6.35,6.35,0,0,0,3.29-.85,5.9,5.9,0,0,0,2.26-2.45,8.95,8.95,0,0,0,0-7.44,5.84,5.84,0,0,0-2.26-2.45A6.36,6.36,0,0,0,48.6,383,6.51,6.51,0,0,0,45.26,383.88Z" transform="translate(-4.76 0)"/><path class="cls-2" d="M77,381.89a8.07,8.07,0,0,1,3.06,4.66H76.78A5.31,5.31,0,0,0,74.7,384a6.2,6.2,0,0,0-3.43-.94A6.27,6.27,0,0,0,68,384a5.87,5.87,0,0,0-2.26,2.42,7.84,7.84,0,0,0-.82,3.69,8.24,8.24,0,0,0,.83,3.83,5.73,5.73,0,0,0,2.33,2.44,7,7,0,0,0,3.48.84,6.13,6.13,0,0,0,4.16-1.5,6.35,6.35,0,0,0,2.1-4.12H70.69v-2.31h9.78v3a9.33,9.33,0,0,1-1.53,3.9,8.69,8.69,0,0,1-3.17,2.8,9.51,9.51,0,0,1-4.5,1,9.81,9.81,0,0,1-5-1.26,8.57,8.57,0,0,1-3.36-3.52,11.67,11.67,0,0,1,0-10.27,8.48,8.48,0,0,1,3.34-3.5,9.75,9.75,0,0,1,5-1.26A9.47,9.47,0,0,1,77,381.89Z" transform="translate(-4.76 0)"/><path class="cls-2" d="M94.85,399.8,90,392H87.77v7.77H84.63V380.35h6.86A7.14,7.14,0,0,1,96.55,382a5.68,5.68,0,0,1,1.72,4.3A5.48,5.48,0,0,1,97,390a6.11,6.11,0,0,1-3.71,1.87l5.1,7.91Zm-7.08-10h3.47q3.81,0,3.81-3.36a3.31,3.31,0,0,0-.93-2.5,4,4,0,0,0-2.88-.89H87.77Z" transform="translate(-4.76 0)"/><path class="cls-2" d="M113.7,395.58h-8.21L104,399.8h-3.36l7.16-19.15h3.61l7.13,19.15h-3.36Zm-.89-2.42-3.22-9.09-3.22,9.09Z" transform="translate(-4.76 0)"/><path class="cls-2" d="M142,380.65V399.8h-3.16V385.45l-5.54,14.35h-2.76L125,385.45V399.8h-3.14V380.65h3.8L132,395.94l6.22-15.29Z" transform="translate(-4.76 0)"/><path class="cls-2" d="M158.91,397.28a5,5,0,0,1-2.1,2,7.2,7.2,0,0,1-3.44.74,8.63,8.63,0,0,1-3.56-.7,6.15,6.15,0,0,1-2.5-2,5.53,5.53,0,0,1-1.08-2.92h3.36a3.51,3.51,0,0,0,1.09,2.18,3.58,3.58,0,0,0,2.55.91,3,3,0,0,0,2.22-.78,2.65,2.65,0,0,0,.78-2,2.52,2.52,0,0,0-.58-1.72,4,4,0,0,0-1.43-1.06,24.93,24.93,0,0,0-2.34-.88,21.57,21.57,0,0,1-3-1.16,5.46,5.46,0,0,1-1.94-1.68,4.78,4.78,0,0,1-.8-2.89,4.9,4.9,0,0,1,.77-2.76,5,5,0,0,1,2.2-1.83,8,8,0,0,1,3.31-.65,7.24,7.24,0,0,1,4.72,1.43,5.39,5.39,0,0,1,2,3.75h-3.39a3.35,3.35,0,0,0-1-1.89,3.25,3.25,0,0,0-2.3-.78,3.17,3.17,0,0,0-2.12.67,2.39,2.39,0,0,0-.8,2,2.45,2.45,0,0,0,.55,1.64,3.76,3.76,0,0,0,1.39,1c.56.25,1.33.54,2.3.87a21.34,21.34,0,0,1,3,1.17,5.52,5.52,0,0,1,2,1.72,5,5,0,0,1,.81,3A5.43,5.43,0,0,1,158.91,397.28Z" transform="translate(-4.76 0)"/></g><path class="cls-5" d="M84.52,251.6h52.6c6.2,0,9.3,3.2,9.3,9.3V327c0,6-3.2,9.2-9.2,9.2H31.52c-6,0-9.3-3.2-9.3-9.2V260.8c0-5.9,3.2-9.1,9.2-9.1C49.12,251.6,66.82,251.6,84.52,251.6Zm-59.1,19.7v55.9c0,4,1.8,5.8,5.8,5.8h106.1c4.1,0,5.8-1.7,5.8-5.8V272.9a8.6,8.6,0,0,0-.1-1.6Zm117.8-3.3a88.08,88.08,0,0,0-.1-8.9,5,5,0,0,0-1.8-3.1,7.65,7.65,0,0,0-3.9-1.1c-35.4-.1-70.7,0-106.1,0h-1.4c-2.1.2-4.2,1.7-4.3,3.8-.2,3.1-.1,6.2-.1,9.4C64.82,268,103.92,268,143.22,268Z" transform="translate(-4.76 0)"/><path class="cls-5" d="M33.52,258.8a2.39,2.39,0,0,1,2.4,2.5h0a2.59,2.59,0,0,1-2.5,2.4,2.43,2.43,0,0,1-2.4-2.4h0v-.1A2.39,2.39,0,0,1,33.52,258.8Z" transform="translate(-4.76 0)"/><path class="cls-5" d="M41.32,258.8a2.45,2.45,0,1,1-2.4,2.5,2.43,2.43,0,0,1,2.3-2.5Z" transform="translate(-4.76 0)"/><path class="cls-5" d="M51.62,261.3a2.35,2.35,0,0,1-2.3,2.4h-.2a2.45,2.45,0,0,1,.1-4.9,2.35,2.35,0,0,1,2.4,2.3Z" transform="translate(-4.76 0)"/><circle class="cls-4" cx="17.45" cy="286" r="10.1"/><circle class="cls-4" cx="137.85" cy="286.71" r="10.1"/><circle class="cls-4" cx="137.95" cy="331" r="10.1"/><circle class="cls-4" cx="21.75" cy="331" r="10.1"/><path class="cls-4" d="M118,260.6H50.92a6.06,6.06,0,0,1-6.1-6.1V253a6.06,6.06,0,0,1,6.1-6.1H118a6.06,6.06,0,0,1,6.1,6.1v1.5A6.12,6.12,0,0,1,118,260.6Z" transform="translate(-4.76 0)"/><g class="cls-1"><path class="cls-2" d="M260.72,169.89a8,8,0,0,1,3.06,4.66h-3.31A5.29,5.29,0,0,0,258.4,172a6.69,6.69,0,0,0-6.7-.08,5.94,5.94,0,0,0-2.26,2.42,8,8,0,0,0-.81,3.69,8.11,8.11,0,0,0,.83,3.83,5.7,5.7,0,0,0,2.32,2.44,7,7,0,0,0,3.49.84,6.17,6.17,0,0,0,4.16-1.5,6.39,6.39,0,0,0,2.09-4.12h-7.13v-2.31h9.78v3a9.33,9.33,0,0,1-1.53,3.9,8.77,8.77,0,0,1-3.17,2.8,9.55,9.55,0,0,1-4.51,1,9.81,9.81,0,0,1-5-1.26,8.7,8.7,0,0,1-3.36-3.52,11.76,11.76,0,0,1,0-10.27,8.56,8.56,0,0,1,3.35-3.5,9.75,9.75,0,0,1,5-1.26A9.46,9.46,0,0,1,260.72,169.89Z" transform="translate(-4.76 0)"/><path class="cls-2" d="M279.92,183.58h-8.21l-1.48,4.22h-3.36L274,168.65h3.61l7.13,19.15h-3.36Zm-.88-2.42-3.22-9.09-3.22,9.09Z" transform="translate(-4.76 0)"/><path class="cls-2" d="M308.27,168.65V187.8h-3.16V173.45l-5.54,14.35h-2.76l-5.56-14.35V187.8h-3.14V168.65h3.8l6.34,15.29,6.22-15.29Z" transform="translate(-4.76 0)"/><path class="cls-2" d="M316.18,170.88v5.9h7.16v2.42h-7.16v6h8v2.56H313V168.35h11.13v2.53Z" transform="translate(-4.76 0)"/><path class="cls-2" d="M340.31,185.28a4.93,4.93,0,0,1-2.09,2,7.23,7.23,0,0,1-3.44.74,8.6,8.6,0,0,1-3.56-.7,6.15,6.15,0,0,1-2.5-2,5.53,5.53,0,0,1-1.08-2.92H331a3.46,3.46,0,0,0,1.09,2.18,3.55,3.55,0,0,0,2.55.91,3,3,0,0,0,2.22-.78,2.65,2.65,0,0,0,.78-2,2.52,2.52,0,0,0-.58-1.72,4,4,0,0,0-1.43-1.06,24.93,24.93,0,0,0-2.34-.88,21.57,21.57,0,0,1-3-1.16,5.46,5.46,0,0,1-1.94-1.68,4.78,4.78,0,0,1-.8-2.89,4.9,4.9,0,0,1,.77-2.76,5,5,0,0,1,2.2-1.83,8,8,0,0,1,3.31-.65,7.24,7.24,0,0,1,4.72,1.43,5.43,5.43,0,0,1,2,3.75H337.2a3.35,3.35,0,0,0-1-1.89,3.25,3.25,0,0,0-2.3-.78,3.17,3.17,0,0,0-2.12.67,2.39,2.39,0,0,0-.8,1.95,2.45,2.45,0,0,0,.55,1.64,3.76,3.76,0,0,0,1.39,1c.56.25,1.33.54,2.3.87a21.34,21.34,0,0,1,3,1.17,5.52,5.52,0,0,1,2,1.72,5,5,0,0,1,.81,3A5.33,5.33,0,0,1,340.31,185.28Z" transform="translate(-4.76 0)"/></g><path class="cls-5" d="M257.69,71.9V64.3c0-1.6.8-2.5,2.1-2.4s2,.9,2,2.4v7.6H269a4.87,4.87,0,0,1,1.2.1,2,2,0,0,1-.4,3.9h-8v7.5a3,3,0,0,1-.2,1.3,1.79,1.79,0,0,1-2.1,1.2,1.88,1.88,0,0,1-1.7-2v-8h-7.5c-1.6,0-2.6-.8-2.6-2.1s.9-1.9,2.5-1.9Z" transform="translate(-4.76 0)"/><path class="cls-5" d="M331.89,63.9a4.17,4.17,0,0,1-4.1,4,4,4,0,0,1,.1-8h.1A4,4,0,0,1,331.89,63.9Z" transform="translate(-4.76 0)"/><path class="cls-5" d="M317.79,69.9a4.17,4.17,0,0,1,4.1,4,4,4,0,0,1-8,0A4.06,4.06,0,0,1,317.79,69.9Z" transform="translate(-4.76 0)"/><path class="cls-5" d="M341.89,74a4,4,0,1,1-3.9-4.1A4.08,4.08,0,0,1,341.89,74Z" transform="translate(-4.76 0)"/><path class="cls-5" d="M327.89,80a4,4,0,0,1-.1,8,4.17,4.17,0,0,1-4-4.1,4,4,0,0,1,4.1-3.9Z" transform="translate(-4.76 0)"/><path class="cls-5" d="M283.69,88h-3.9a1.92,1.92,0,0,1-2.1-1.7V86a2,2,0,0,1,2-2h7.8a2.1,2.1,0,0,1,2.2,1.9h0V86a2.12,2.12,0,0,1-2.2,2Z" transform="translate(-4.76 0)"/><path class="cls-5" d="M303.79,84h3.9a1.92,1.92,0,0,1,2.1,1.7V86a2,2,0,0,1-2,2H300a2,2,0,0,1-.2-4h.3C301.29,83.9,302.49,84,303.79,84Z" transform="translate(-4.76 0)"/><path class="cls-6" d="M331.49,45.5h-75.9s-18.7,0-18.7,18.7v53.3a6.37,6.37,0,0,0,2.1,5c2,1.7,5.5,2.7,11.9-1.1,11.7-7,21-19.9,21-19.9h43.2s9.3,12.9,21,19.9c6.3,3.8,9.9,2.8,11.9,1.1a6.72,6.72,0,0,0,2.1-5V64.2C350.19,45.5,331.49,45.5,331.49,45.5Z" transform="translate(-4.76 0)"/><rect class="cls-6" x="276.52" y="38.5" width="23.4" height="7"/><path class="cls-6" d="M293,38.5V18.6s1.2-7-7-7H265" transform="translate(-4.76 0)"/><path class="cls-4" d="M326.39,76.4h-67.1a6.06,6.06,0,0,1-6.1-6.1V68.8a6.06,6.06,0,0,1,6.1-6.1h67.1a6.06,6.06,0,0,1,6.1,6.1v1.5A6.06,6.06,0,0,1,326.39,76.4Z" transform="translate(-4.76 0)"/><circle class="cls-4" cx="266.92" cy="11.61" r="10.1"/><circle class="cls-4" cx="289.22" cy="104.41" r="10.1"/><circle class="cls-4" cx="235.12" cy="119.6" r="10.1"/><circle class="cls-4" cx="342.72" cy="119.6" r="10.1"/><path class="cls-7" d="M362.14,310.6c-4.4-2.1-8.5-4-12.6-6-.4-.2-.6-1-.6-1.6V263.5h-81v61.9h31.5v11.4c-.6,0-1.2.1-1.8.1H247c-7.5,0-11.8-3.8-11.8-10.2v-65c0-4.6,2.9-8.1,7.6-9.3a15.53,15.53,0,0,1,3.7-.4h104.3c6.8,0,11.3,3.9,11.3,9.8v48.8Z" transform="translate(-4.76 0)"/><path class="cls-6" d="M322.94,331V299.3a4.12,4.12,0,0,1,2.7-4,3.9,3.9,0,0,1,4.4,1.2,5.47,5.47,0,0,1,.9,2.8c.1,3.4,0,6.7,0,10.1v1.2c.2-.1.5-.3.7-.4a3.62,3.62,0,0,1,4.1-.2c5.4,2.9,10.8,5.8,16.2,8.8a3.92,3.92,0,0,1,2.1,3.5c0,6,.1,12,0,18a14.66,14.66,0,0,1-5.6,11.3,3.1,3.1,0,0,0-.6,1.3c-.1,1.5,0,3,0,4.5a2.63,2.63,0,0,1-2.3,3h-15.6a2.7,2.7,0,0,1-2.9-2.5v-.4a45.1,45.1,0,0,1,0-5.2,5.91,5.91,0,0,0-1.9-4.7c-2.2-2.4-4.5-4.7-6.6-7.1a10,10,0,0,1-1.7-2.8c-1.7-4.6-3.4-9.3-5-14a3.9,3.9,0,0,1,2.1-5.1l.9-.3a4,4,0,0,1,4.6,2.7c1.1,3.1,2.2,6.1,3.3,9.2A2.35,2.35,0,0,0,322.94,331Z" transform="translate(-4.76 0)"/><path class="cls-5" d="M254.74,292a4.94,4.94,0,0,1-4.7,4.9,4.8,4.8,0,0,1-4.9-4.7h0V292a4.74,4.74,0,0,1,4.8-4.8A4.8,4.8,0,0,1,254.74,292Z" transform="translate(-4.76 0)"/><circle class="cls-4" cx="230.57" cy="291.71" r="10.1"/><circle class="cls-4" cx="232.77" cy="331" r="10.1"/><circle class="cls-4" cx="321.77" cy="299" r="10.1"/><path class="cls-4" d="M340.74,258.6h-67.1a6.06,6.06,0,0,1-6.1-6.1V251a6.06,6.06,0,0,1,6.1-6.1h67.1a6.06,6.06,0,0,1,6.1,6.1v1.5a6.1,6.1,0,0,1-6,6.1Z" transform="translate(-4.76 0)"/><circle class="cls-4" cx="232.57" cy="255.7" r="10.1"/></svg>